<svg width="95" height="26" viewBox="0 0 95 26" fill="none" xmlns="http://www.w3.org/2000/svg">
<rect width="26" height="26" rx="13" fill="#7266F4"/>
<path d="M13.4588 11.8281H11.5923C11.5582 11.5866 11.4886 11.3722 11.3835 11.1847C11.2784 10.9943 11.1435 10.8324 10.9787 10.6989C10.8139 10.5653 10.6236 10.4631 10.4077 10.392C10.1946 10.321 9.96307 10.2855 9.71307 10.2855C9.26136 10.2855 8.8679 10.3977 8.53267 10.6222C8.19744 10.8437 7.9375 11.1676 7.75284 11.5938C7.56818 12.017 7.47585 12.5312 7.47585 13.1364C7.47585 13.7585 7.56818 14.2812 7.75284 14.7045C7.94034 15.1278 8.2017 15.4474 8.53693 15.6634C8.87216 15.8793 9.25994 15.9872 9.70028 15.9872C9.94744 15.9872 10.1761 15.9545 10.3864 15.8892C10.5994 15.8239 10.7884 15.7287 10.9531 15.6037C11.1179 15.4759 11.2543 15.321 11.3622 15.1392C11.473 14.9574 11.5497 14.75 11.5923 14.517L13.4588 14.5256C13.4105 14.9261 13.2898 15.3125 13.0966 15.6847C12.9063 16.054 12.6491 16.3849 12.3253 16.6776C12.0043 16.9673 11.6207 17.1974 11.1747 17.3679C10.7315 17.5355 10.2301 17.6193 9.67045 17.6193C8.89205 17.6193 8.19602 17.4432 7.58239 17.0909C6.97159 16.7386 6.48864 16.2287 6.13352 15.5611C5.78125 14.8935 5.60511 14.0852 5.60511 13.1364C5.60511 12.1847 5.78409 11.375 6.14205 10.7074C6.5 10.0398 6.9858 9.53125 7.59943 9.18182C8.21307 8.82955 8.90341 8.65341 9.67045 8.65341C10.1761 8.65341 10.6449 8.72443 11.0767 8.86648C11.5114 9.00852 11.8963 9.21591 12.2315 9.48864C12.5668 9.75852 12.8395 10.0895 13.0497 10.4815C13.2628 10.8736 13.3991 11.3224 13.4588 11.8281ZM14.782 17.5V8.77273H16.6271V15.9787H20.3686V17.5H14.782Z" fill="white"/>
<path d="M42.4588 11.8281H40.5923C40.5582 11.5866 40.4886 11.3722 40.3835 11.1847C40.2784 10.9943 40.1435 10.8324 39.9787 10.6989C39.8139 10.5653 39.6236 10.4631 39.4077 10.392C39.1946 10.321 38.9631 10.2855 38.7131 10.2855C38.2614 10.2855 37.8679 10.3977 37.5327 10.6222C37.1974 10.8437 36.9375 11.1676 36.7528 11.5938C36.5682 12.017 36.4759 12.5312 36.4759 13.1364C36.4759 13.7585 36.5682 14.2812 36.7528 14.7045C36.9403 15.1278 37.2017 15.4474 37.5369 15.6634C37.8722 15.8793 38.2599 15.9872 38.7003 15.9872C38.9474 15.9872 39.1761 15.9545 39.3864 15.8892C39.5994 15.8239 39.7884 15.7287 39.9531 15.6037C40.1179 15.4759 40.2543 15.321 40.3622 15.1392C40.473 14.9574 40.5497 14.75 40.5923 14.517L42.4588 14.5256C42.4105 14.9261 42.2898 15.3125 42.0966 15.6847C41.9063 16.054 41.6491 16.3849 41.3253 16.6776C41.0043 16.9673 40.6207 17.1974 40.1747 17.3679C39.7315 17.5355 39.2301 17.6193 38.6705 17.6193C37.892 17.6193 37.196 17.4432 36.5824 17.0909C35.9716 16.7386 35.4886 16.2287 35.1335 15.5611C34.7812 14.8935 34.6051 14.0852 34.6051 13.1364C34.6051 12.1847 34.7841 11.375 35.142 10.7074C35.5 10.0398 35.9858 9.53125 36.5994 9.18182C37.2131 8.82955 37.9034 8.65341 38.6705 8.65341C39.1761 8.65341 39.6449 8.72443 40.0767 8.86648C40.5114 9.00852 40.8963 9.21591 41.2315 9.48864C41.5668 9.75852 41.8395 10.0895 42.0497 10.4815C42.2628 10.8736 42.3991 11.3224 42.4588 11.8281ZM46.7053 17.6278C46.0433 17.6278 45.4709 17.4872 44.9879 17.206C44.5078 16.9219 44.1371 16.527 43.8757 16.0213C43.6143 15.5128 43.4837 14.9233 43.4837 14.2528C43.4837 13.5767 43.6143 12.9858 43.8757 12.4801C44.1371 11.9716 44.5078 11.5767 44.9879 11.2955C45.4709 11.0114 46.0433 10.8693 46.7053 10.8693C47.3672 10.8693 47.9382 11.0114 48.4183 11.2955C48.9013 11.5767 49.2734 11.9716 49.5348 12.4801C49.7962 12.9858 49.9268 13.5767 49.9268 14.2528C49.9268 14.9233 49.7962 15.5128 49.5348 16.0213C49.2734 16.527 48.9013 16.9219 48.4183 17.206C47.9382 17.4872 47.3672 17.6278 46.7053 17.6278ZM46.7138 16.2216C47.0149 16.2216 47.2663 16.1364 47.468 15.9659C47.6697 15.7926 47.8217 15.5568 47.924 15.2585C48.0291 14.9602 48.0817 14.6207 48.0817 14.2401C48.0817 13.8594 48.0291 13.5199 47.924 13.2216C47.8217 12.9233 47.6697 12.6875 47.468 12.5142C47.2663 12.3409 47.0149 12.2543 46.7138 12.2543C46.4098 12.2543 46.1541 12.3409 45.9467 12.5142C45.7422 12.6875 45.5874 12.9233 45.4822 13.2216C45.38 13.5199 45.3288 13.8594 45.3288 14.2401C45.3288 14.6207 45.38 14.9602 45.4822 15.2585C45.5874 15.5568 45.7422 15.7926 45.9467 15.9659C46.1541 16.1364 46.4098 16.2216 46.7138 16.2216ZM53.5192 17.6065C53.022 17.6065 52.5717 17.4787 52.1683 17.223C51.7678 16.9645 51.4496 16.5852 51.2138 16.0852C50.9808 15.5824 50.8643 14.9659 50.8643 14.2358C50.8643 13.4858 50.9851 12.8622 51.2266 12.3651C51.468 11.8651 51.7891 11.4915 52.1896 11.2443C52.593 10.9943 53.0348 10.8693 53.5149 10.8693C53.8814 10.8693 54.1868 10.9318 54.4311 11.0568C54.6783 11.179 54.8771 11.3324 55.0277 11.517C55.1811 11.6989 55.2976 11.8778 55.3771 12.054H55.4325V8.77273H57.2436V17.5H55.4538V16.4517H55.3771C55.2919 16.6335 55.1712 16.8139 55.0149 16.9929C54.8615 17.169 54.6612 17.3153 54.4141 17.4318C54.1697 17.5483 53.8714 17.6065 53.5192 17.6065ZM54.0945 16.1619C54.3871 16.1619 54.6342 16.0824 54.8359 15.9233C55.0405 15.7614 55.1967 15.5355 55.3047 15.2457C55.4155 14.956 55.4709 14.6165 55.4709 14.2273C55.4709 13.8381 55.4169 13.5 55.3089 13.2131C55.201 12.9261 55.0447 12.7045 54.8402 12.5483C54.6357 12.392 54.3871 12.3139 54.0945 12.3139C53.7962 12.3139 53.5447 12.3949 53.3402 12.5568C53.1357 12.7187 52.9808 12.9432 52.8757 13.2301C52.7706 13.517 52.718 13.8494 52.718 14.2273C52.718 14.608 52.7706 14.9446 52.8757 15.2372C52.9837 15.527 53.1385 15.7543 53.3402 15.919C53.5447 16.081 53.7962 16.1619 54.0945 16.1619ZM58.7362 17.5V10.9545H60.5515V17.5H58.7362ZM59.6481 10.1108C59.3782 10.1108 59.1467 10.0213 58.9535 9.84233C58.7631 9.66051 58.668 9.44318 58.668 9.19034C58.668 8.94034 58.7631 8.72585 58.9535 8.54688C59.1467 8.36506 59.3782 8.27415 59.6481 8.27415C59.918 8.27415 60.1481 8.36506 60.3384 8.54688C60.5316 8.72585 60.6282 8.94034 60.6282 9.19034C60.6282 9.44318 60.5316 9.66051 60.3384 9.84233C60.1481 10.0213 59.918 10.1108 59.6481 10.1108ZM63.821 13.7159V17.5H62.0057V10.9545H63.7358V12.1094H63.8125C63.9574 11.7287 64.2003 11.4276 64.5412 11.206C64.8821 10.9815 65.2955 10.8693 65.7812 10.8693C66.2358 10.8693 66.6321 10.9688 66.9702 11.1676C67.3082 11.3665 67.571 11.6506 67.7585 12.0199C67.946 12.3864 68.0398 12.8239 68.0398 13.3324V17.5H66.2244V13.6562C66.2273 13.2557 66.125 12.9432 65.9176 12.7188C65.7102 12.4915 65.4247 12.3778 65.0611 12.3778C64.8168 12.3778 64.6009 12.4304 64.4134 12.5355C64.2287 12.6406 64.0838 12.794 63.9787 12.9957C63.8764 13.1946 63.8239 13.4347 63.821 13.7159ZM72.4194 20.0909C71.8313 20.0909 71.3271 20.0099 70.9066 19.848C70.489 19.6889 70.1566 19.4716 69.9094 19.196C69.6623 18.9205 69.5018 18.6108 69.4279 18.267L71.1069 18.0412C71.158 18.1719 71.239 18.294 71.3498 18.4077C71.4606 18.5213 71.6069 18.6122 71.7887 18.6804C71.9734 18.7514 72.1978 18.7869 72.462 18.7869C72.8569 18.7869 73.1822 18.6903 73.4379 18.4972C73.6964 18.3068 73.8256 17.9872 73.8256 17.5384V16.3409H73.7489C73.6694 16.5227 73.5501 16.6946 73.391 16.8565C73.2319 17.0185 73.0273 17.1506 72.7773 17.2528C72.5273 17.3551 72.229 17.4062 71.8825 17.4062C71.391 17.4062 70.9435 17.2926 70.5401 17.0653C70.1396 16.8352 69.82 16.4844 69.5813 16.0128C69.3455 15.5384 69.2276 14.9389 69.2276 14.2145C69.2276 13.473 69.3484 12.8537 69.5898 12.3565C69.8313 11.8594 70.1523 11.4872 70.5529 11.2401C70.9563 10.9929 71.3981 10.8693 71.8782 10.8693C72.2447 10.8693 72.5515 10.9318 72.7987 11.0568C73.0458 11.179 73.2447 11.3324 73.3952 11.517C73.5487 11.6989 73.6665 11.8778 73.7489 12.054H73.8171V10.9545H75.6197V17.5639C75.6197 18.1207 75.4833 18.5866 75.2106 18.9616C74.9379 19.3366 74.56 19.6179 74.0771 19.8054C73.5969 19.9957 73.0444 20.0909 72.4194 20.0909ZM72.4577 16.0426C72.7504 16.0426 72.9975 15.9702 73.1992 15.8253C73.4038 15.6776 73.56 15.4673 73.668 15.1946C73.7788 14.919 73.8342 14.5895 73.8342 14.206C73.8342 13.8224 73.7802 13.4901 73.6722 13.2088C73.5643 12.9247 73.408 12.7045 73.2035 12.5483C72.9989 12.392 72.7504 12.3139 72.4577 12.3139C72.1594 12.3139 71.908 12.3949 71.7035 12.5568C71.4989 12.7159 71.3441 12.9375 71.239 13.2216C71.1339 13.5057 71.0813 13.8338 71.0813 14.206C71.0813 14.5838 71.1339 14.9105 71.239 15.1861C71.3469 15.4588 71.5018 15.6705 71.7035 15.821C71.908 15.9687 72.1594 16.0426 72.4577 16.0426ZM78.8796 8.77273V17.5H77.0643V8.77273H78.8796ZM82.2003 17.6236C81.7827 17.6236 81.4105 17.5511 81.0838 17.4062C80.7571 17.2585 80.4986 17.0412 80.3082 16.7543C80.1207 16.4645 80.027 16.1037 80.027 15.6719C80.027 15.3082 80.0938 15.0028 80.2273 14.7557C80.3608 14.5085 80.5426 14.3097 80.7727 14.1591C81.0028 14.0085 81.2642 13.8949 81.5568 13.8182C81.8523 13.7415 82.1619 13.6875 82.4858 13.6562C82.8665 13.6165 83.1733 13.5795 83.4062 13.5455C83.6392 13.5085 83.8082 13.4545 83.9134 13.3835C84.0185 13.3125 84.071 13.2074 84.071 13.0682V13.0426C84.071 12.7727 83.9858 12.5639 83.8153 12.4162C83.6477 12.2685 83.4091 12.1946 83.0994 12.1946C82.7727 12.1946 82.5128 12.267 82.3196 12.4119C82.1264 12.554 81.9986 12.733 81.9361 12.9489L80.2571 12.8125C80.3423 12.4148 80.5099 12.071 80.7599 11.7812C81.0099 11.4886 81.3324 11.2642 81.7273 11.108C82.125 10.9489 82.5852 10.8693 83.108 10.8693C83.4716 10.8693 83.8196 10.9119 84.152 10.9972C84.4872 11.0824 84.7841 11.2145 85.0426 11.3935C85.304 11.5724 85.5099 11.8026 85.6605 12.0838C85.8111 12.3622 85.8864 12.696 85.8864 13.0852V17.5H84.1648V16.5923H84.1136C84.0085 16.7969 83.8679 16.9773 83.6918 17.1335C83.5156 17.2869 83.304 17.4077 83.0568 17.4957C82.8097 17.581 82.5241 17.6236 82.2003 17.6236ZM82.7202 16.3707C82.9872 16.3707 83.223 16.3182 83.4276 16.2131C83.6321 16.1051 83.7926 15.9602 83.9091 15.7784C84.0256 15.5966 84.0838 15.3906 84.0838 15.1605V14.4659C84.027 14.5028 83.9489 14.5369 83.8494 14.5682C83.7528 14.5966 83.6435 14.6236 83.5213 14.6491C83.3991 14.6719 83.277 14.6932 83.1548 14.7131C83.0327 14.7301 82.9219 14.7457 82.8224 14.7599C82.6094 14.7912 82.4233 14.8409 82.2642 14.9091C82.1051 14.9773 81.9815 15.0696 81.8935 15.1861C81.8054 15.2997 81.7614 15.4418 81.7614 15.6122C81.7614 15.8594 81.8509 16.0483 82.0298 16.179C82.2116 16.3068 82.4418 16.3707 82.7202 16.3707ZM87.3288 17.5V8.77273H89.1442V12.054H89.1996C89.2791 11.8778 89.3942 11.6989 89.5447 11.517C89.6982 11.3324 89.897 11.179 90.1413 11.0568C90.3885 10.9318 90.6953 10.8693 91.0618 10.8693C91.5391 10.8693 91.9794 10.9943 92.3828 11.2443C92.7862 11.4915 93.1087 11.8651 93.3501 12.3651C93.5916 12.8622 93.7124 13.4858 93.7124 14.2358C93.7124 14.9659 93.5945 15.5824 93.3587 16.0852C93.1257 16.5852 92.8075 16.9645 92.4041 17.223C92.0036 17.4787 91.5547 17.6065 91.0575 17.6065C90.7053 17.6065 90.4055 17.5483 90.1584 17.4318C89.9141 17.3153 89.7138 17.169 89.5575 16.9929C89.4013 16.8139 89.282 16.6335 89.1996 16.4517H89.1186V17.5H87.3288ZM89.1058 14.2273C89.1058 14.6165 89.1598 14.956 89.2678 15.2457C89.3757 15.5355 89.532 15.7614 89.7365 15.9233C89.9411 16.0824 90.1896 16.1619 90.4822 16.1619C90.7777 16.1619 91.0277 16.081 91.2322 15.919C91.4368 15.7543 91.5916 15.527 91.6967 15.2372C91.8047 14.9446 91.8587 14.608 91.8587 14.2273C91.8587 13.8494 91.8061 13.517 91.701 13.2301C91.5959 12.9432 91.4411 12.7187 91.2365 12.5568C91.032 12.3949 90.7805 12.3139 90.4822 12.3139C90.1868 12.3139 89.9368 12.392 89.7322 12.5483C89.5305 12.7045 89.3757 12.9261 89.2678 13.2131C89.1598 13.5 89.1058 13.8381 89.1058 14.2273Z" fill="black"/>
</svg>
